1.8Hz3min_grf.mot
version=1
nRows=12
nColumns 19
inDegrees=yes
endheader
time	1_ground_force_vx	1_ground_force_vy	1_ground_force_vz	1_ground_force_px	1_ground_force_py	1_ground_force_pz	1_ground_torque_x	1_ground_torque_y	1_ground_torque_z	2_ground_force_vx	2_ground_force_vy	2_ground_force_vz	2_ground_force_px	2_ground_force_py	2_ground_force_pz	2_ground_torque_x	2_ground_torque_y	2_ground_torque_z
            3.751500	          -20.466937	          591.051735	          -73.216760	           -0.248823	            0.006261	           -0.414968	           -0.180002	            5.198170	           -0.643925	           -1.745604	          740.701309	           90.915397	           -0.272995	            0.005724	           -0.761078	            0.010222	           -4.337414	           -0.532384
            3.752000	          -21.063824	          590.512623	          -73.630314	           -0.248405	            0.006262	           -0.415184	           -0.183917	            5.156012	           -0.642897	           -2.157366	          737.938163	           90.718008	           -0.273025	            0.005724	           -0.761006	            0.012549	           -4.292474	           -0.527693
            3.752500	          -21.890202	          590.874900	          -74.085272	           -0.248552	            0.006262	           -0.415002	           -0.189678	            5.119908	           -0.641946	           -2.155249	          737.384675	           90.997605	           -0.272890	            0.005724	           -0.760773	            0.012269	           -4.197573	           -0.518005
            3.753000	          -22.625319	          592.319243	          -74.627539	           -0.248308	            0.006260	           -0.414662	           -0.195567	            5.119856	           -0.645061	           -2.901236	          736.458983	           91.651632	           -0.272667	            0.005724	           -0.760779	            0.016199	           -4.112008	           -0.511736
            3.753500	          -23.222396	          591.600228	          -75.133571	           -0.248370	            0.006261	           -0.414836	           -0.199377	            5.079208	           -0.645062	           -3.133451	          735.905319	           91.743617	           -0.272556	            0.005725	           -0.760748	            0.017168	           -4.032097	           -0.502672
            3.754000	          -23.728265	          591.602883	          -75.774294	           -0.248281	            0.006262	           -0.415109	           -0.201816	            5.031765	           -0.644484	           -3.644771	          734.798280	           91.833750	           -0.272542	            0.005725	           -0.760839	            0.019874	           -4.006611	           -0.500739
            3.754500	          -24.050548	          592.326046	          -76.274825	           -0.248137	            0.006261	           -0.414760	           -0.201278	            4.957160	           -0.638342	           -4.155988	          733.690281	           92.158516	           -0.272354	            0.005726	           -0.760905	            0.022302	           -3.937227	           -0.494553
            3.755000	          -24.418154	          592.687944	          -76.593364	           -0.247954	            0.006261	           -0.414746	           -0.199522	            4.842874	           -0.625847	           -4.574814	          732.950857	           92.531492	           -0.272353	            0.005726	           -0.760778	            0.024062	           -3.855125	           -0.486691
            3.755500	          -25.153823	          593.412404	          -77.413850	           -0.247794	            0.006260	           -0.414652	           -0.204300	            4.819710	           -0.628757	           -4.849994	          731.293017	           92.384921	           -0.272199	            0.005726	           -0.760688	            0.025050	           -3.777169	           -0.477173
            3.756000	          -25.842036	          592.151696	          -77.738550	           -0.247871	            0.006262	           -0.415151	           -0.209893	            4.809552	           -0.631405	           -5.177861	          731.291163	           92.572773	           -0.272035	            0.005726	           -0.760609	            0.025987	           -3.670222	           -0.464607
            3.756500	          -26.439734	          592.334826	          -78.424140	           -0.247632	            0.006262	           -0.415092	           -0.211308	            4.733968	           -0.626769	           -5.128147	          730.553096	           93.039406	           -0.271846	            0.005727	           -0.760768	            0.025470	           -3.628373	           -0.462091
            3.757000	          -27.037030	          593.418332	          -78.876575	           -0.247606	            0.006261	           -0.414811	           -0.216940	            4.761477	           -0.632891	           -6.106554	          729.075292	           93.316136	           -0.271736	            0.005728	           -0.760924	            0.029408	           -3.511143	           -0.449400
